<svg enable-background="new 0 0 512 512" viewBox="0 0 512 512" xmlns="http://www.w3.org/2000/svg"><circle cx="255.107" cy="256" fill="#ff473e" r="254.106"/><path d="m256 487.106c-136.484 0-247.82-107.606-253.835-242.606-.17 3.813-.271 7.645-.271 11.5 0 140.339 113.767 254.106 254.106 254.106s254.106-113.767 254.106-254.106c0-3.855-.101-7.687-.271-11.5-6.015 135-117.351 242.606-253.835 242.606z" fill="#d32a2a"/><path d="m415.997 311.61h-321.781c-9.262 0-16.771-7.509-16.771-16.771v-82.431c0-9.262 7.509-16.771 16.771-16.771h321.781c9.262 0 16.771 7.509 16.771 16.771v82.431c0 9.262-7.508 16.771-16.771 16.771z" fill="#fff"/></svg>